<svg xmlns="http://www.w3.org/2000/svg" viewBox="-24.4 -29.8284 50.8 48.83">
	<path d="M -18 0 A 2 2 90 0 0 18 0 A 2 2 90 0 0 -18 0 M -15 -1 Q -16 -1 -16 -2 C -16 -3 -15 -7 -13 -8 C -11 -9 -4 -9 -2 -9 Q -1 -9 -1 -8 L -1 -2 Q -1 -1 -2 -1 Z M -12 -10 C -9 -14 -5 -16 -2 -16 Q -1 -16 -1 -15 L -1 -12 Q -1 -11 -2 -11 C -4 -11 -8 -11 -12 -10 Z M -2 1 Q -1 1 -1 2 L -1 8 Q -1 9 -2 9 C -6 9 -12 9 -14 8 Q -16 7 -16 2 Q -16 1 -15 1 Z M -13 10 C -8 11 -4 11 -2 11 Q -1 11 -1 12 L -1 15 Q -1 16 -2 16 C -5 16 -10 14 -13 10 Z M 13 -10 C 9 -11 4 -11 2 -11 Q 1 -11 1 -12 L 1 -15 Q 1 -16 2 -16 C 5 -16 9 -14 13 -10 Z M 16 -2 Q 16 -1 15 -1 L 2 -1 Q 1 -1 1 -2 L 1 -8 Q 1 -9 2 -9 C 4 -9 11 -9 13 -8 C 15 -7 16 -3 16 -2 M 2 1 L 15 1 Q 16 1 16 2 Q 16 7 14 8 C 12 9 6 9 2 9 Q 1 9 1 8 L 1 2 Q 1 1 2 1 Z M 13 10 C 10 13 5 16 2 16 Q 1 16 1 15 L 1 12 Q 1 11 2 11 C 5.3333 11 8.6667 11 13 10 Z" stroke="#acc" stroke-width=".5" fill="#58b"/>
	<path d="M -19 19 Q -19 16 -17 13 L 5 -16 Q 6 -17 4 -18 C -1 -20 3 -25 6 -21 L 8 -19 Q 9 -18 10 -20 Q 12 -23 14 -24 C 16 -25 15 -25 14 -27 C 13 -29 18 -31 20 -29 C 22 -27 22 -23 19 -23 C 18 -23 18 -24 17 -22 Q 16 -20 13 -17 Q 12 -16 13 -15 L 15 -13 C 20 -11 15 -6 13 -11 Q 12 -14 10 -11 L -14 16 Q -16 18 -19 19 Z" stroke="#000" stroke-width=".5" fill="#a96" />
	<path d="M -24 -11 Q -21 -11 -21 -14 Q -21 -11 -18 -11 Q -21 -11 -21 -8 Q -21 -11 -24 -11 M 19 -11 Q 22 -11 22 -14 Q 22 -11 25 -11 Q 22 -11 22 -8 Q 22 -11 19 -11 Z" stroke="#000" stroke-width=".5" fill="#ff9" />
	<path d="M -17 -21 A 1 1 0 0 0 -10 -21 A 1 1 0 0 0 -17 -21 Z M 20 5 A 1 1 0 0 0 26 5 A 1 1 0 0 0 20 5 Z" stroke="#000" stroke-width=".5" fill="#b9f" />
	<path d="M 14 -23 L 15 -22 L 16 -22 M 13 -22 L 14 -21 L 15 -21 M 12 -20 L 13 -19 L 14 -19 M 11 -19 L 12 -18 M 17 -26 A 1 1 0 0 0 19 -27 M -17 16 L 3 -7 L 9 -13 L 8 -15 L 6 -15 L 4 -12 L 2 -8" stroke="#000" stroke-width=".5" fill="#973" />
</svg>